<svg width="22" height="22" viewBox="0 0 22 22" fill="none" xmlns="http://www.w3.org/2000/svg">
<path fill-rule="evenodd" clip-rule="evenodd" d="M14.6667 2.75033H3.66675C3.16049 2.75033 2.75008 3.16073 2.75008 3.66699C2.75008 4.17325 3.16049 4.58366 3.66675 4.58366H14.6667C15.173 4.58366 15.5834 4.17325 15.5834 3.66699C15.5834 3.16073 15.173 2.75033 14.6667 2.75033ZM3.66675 0.916992C2.14797 0.916992 0.916748 2.14821 0.916748 3.66699C0.916748 5.18578 2.14797 6.41699 3.66675 6.41699H14.6667C15.8642 6.41699 16.883 5.6516 17.2604 4.58333H17.8749C18.3812 4.58333 18.7916 4.99374 18.7916 5.5V6.41667C18.7916 6.92293 18.3812 7.33333 17.8749 7.33333H10.9999C9.48115 7.33333 8.24993 8.56455 8.24993 10.0833V11.1565C7.1819 11.5341 6.41671 12.5527 6.41671 13.75V18.3333C6.41671 19.8521 7.64793 21.0833 9.16671 21.0833C10.6855 21.0833 11.9167 19.8521 11.9167 18.3333V13.75C11.9167 12.5526 11.1514 11.5339 10.0833 11.1564V10.0833C10.0833 9.57707 10.4937 9.16667 10.9999 9.16667H17.8749C19.3937 9.16667 20.6249 7.93545 20.6249 6.41667V5.5C20.6249 3.98122 19.3937 2.75 17.8749 2.75H17.2602C16.8825 1.68208 15.864 0.916992 14.6667 0.916992H3.66675ZM9.16805 12.8333C9.1676 12.8333 9.16716 12.8333 9.16671 12.8333C9.16627 12.8333 9.16582 12.8333 9.16537 12.8333C8.65973 12.8341 8.25005 13.2442 8.25005 13.75V18.3333C8.25005 18.8396 8.66045 19.25 9.16671 19.25C9.67297 19.25 10.0834 18.8396 10.0834 18.3333V13.75C10.0834 13.2442 9.6737 12.8341 9.16805 12.8333Z" fill="white"/>
</svg>
